<?xml version="1.0" standalone="no"?>
<!DOCTYPE svg PUBLIC "-//W3C//DTD SVG 20010904//EN"
 "http://www.w3.org/TR/2001/REC-SVG-20010904/DTD/svg10.dtd">
<svg version="1.0" xmlns="http://www.w3.org/2000/svg"
 width="512.000000pt" height="512.000000pt" viewBox="0 0 512.000000 512.000000"
 preserveAspectRatio="xMidYMid meet">
<metadata>
Created by potrace 1.11, written by Peter Selinger 2001-2013
</metadata>
<g transform="translate(0.000000,512.000000) scale(0.100000,-0.100000)"
fill="#000000" stroke="none">
<path d="M1280 4214 c0 -3 16 -33 35 -65 19 -33 35 -63 35 -66 0 -4 6 -14 14
-22 7 -9 27 -41 43 -71 35 -64 179 -318 192 -340 43 -68 191 -332 191 -339 0
-5 4 -11 8 -13 4 -1 23 -30 41 -63 63 -111 72 -128 212 -371 76 -133 139 -245
139 -248 0 -3 -173 -6 -385 -6 l-385 0 0 -170 0 -170 470 0 470 0 0 -160 0
-160 -469 0 -470 0 -3 -107 c-2 -60 -2 -132 0 -160 l3 -53 470 0 469 0 0 -370
0 -370 205 0 205 0 0 370 0 370 470 0 470 0 0 160 0 160 -470 0 -470 0 0 160
0 160 470 0 470 0 0 170 0 170 -385 0 c-212 0 -385 4 -385 8 0 4 12 28 28 53
15 24 33 56 41 71 8 15 19 25 24 21 6 -3 7 -1 3 5 -3 5 118 228 270 494 152
265 285 499 296 518 10 19 23 42 29 50 23 36 219 382 219 386 0 2 -109 3 -242
2 l-241 -3 -70 -125 c-38 -69 -91 -165 -117 -215 -26 -49 -64 -121 -85 -160
-21 -38 -56 -104 -78 -145 -22 -41 -43 -79 -47 -85 -5 -5 -35 -62 -68 -125
-33 -63 -86 -162 -119 -220 -32 -58 -94 -178 -138 -267 -44 -89 -82 -162 -85
-162 -3 -1 -11 14 -19 32 -18 43 -122 251 -151 302 -13 22 -65 114 -116 205
-51 91 -194 345 -317 565 l-226 400 -225 3 c-124 1 -226 0 -226 -4z"/>
</g>
</svg>
